{"title":"Songs of Praise 1","uid":7075931,"size":915393731,"categoryP":"video","categoryS":"tv_shows","magnet":"?xt=urn:btih:10a7642d66fef8cd6a5c90dc35091e0a50e07b12&amp;dn=Songs+of+Praise+1&amp;tr=udp%3A%2F%2Ftracker.openbittorrent.com%3A80&amp;tr=udp%3A%2F%2Fopen.demonii.com%3A1337&amp;tr=udp%3A%2F%2Ftracker.coppersurfer.tk%3A6969&amp;tr=udp%3A%2F%2Fexodus.desync.com%3A6969","seeders":0,"leechers":0,"uploader":"kokyzake","files":2,"time":1330840180,"description":"Initial-Seeding: which gives more receives more...\n\nPack 1:\n\nGeneral\nComplete name                            : 2011-03-06 Pancakes and all that.avi\nFormat                                   : AVI\nFormat/Info                              : Audio Video Interleave\nFile size                                : 873 MiB\nDuration                                 : 34mn 14s\nOverall bit rate                         : 3 565 Kbps\n\nVideo\nID                                       : 0\nFormat                                   : MPEG-4 Visual\nFormat profile                           : Simple@L3\nFormat settings, BVOP                    : No\nFormat settings, QPel                    : No\nFormat settings, GMC                     : No warppoints\nFormat settings, Matrix                  : Default (H.263)\nCodec ID                                 : XVID\nCodec ID/Hint                            : XviD\nDuration                                 : 34mn 14s\nBit rate                                 : 3 424 Kbps\nWidth                                    : 720 pixels\nHeight                                   : 404 pixels\nDisplay aspect ratio                     : 16:9\nFrame rate                               : 29.970 fps\nOriginal frame rate                      : 29.000 fps\nColor space                              : YUV\nChroma subsampling                       : 4:2:0\nBit depth                                : 8 bits\nScan type                                : Progressive\nCompression mode                         : Lossy\nBits/(Pixel*Frame)                       : 0.393\nStream size                              : 838 MiB (96%)\nWriting library                          : XviD 1.2.1 (UTC 2008-12-04)\n\nAudio\nID                                       : 1\nFormat                                   : MPEG Audio\nFormat version                           : Version 1\nFormat profile                           : Layer 3\nMode                                     : Joint stereo\nMode extension                           : MS Stereo\nCodec ID                                 : 55\nCodec ID/Hint                            : MP3\nDuration                                 : 34mn 14s\nBit rate mode                            : Constant\nBit rate                                 : 128 Kbps\nChannel(s)                               : 2 channels\nSampling rate                            : 44.1 KHz\nCompression mode                         : Lossy\nStream size                              : 31.3 MiB (4%)\nAlignment                                : Aligned on interleaves\nInterleave, duration                     : 26 ms (0.78 video frame)\nInterleave, preload duration             : 52 ms\nWriting library                          : LAME3.98.2","torrent":{"xt":"urn:btih:10a7642d66fef8cd6a5c90dc35091e0a50e07b12","amp;dn":"Songs+of+Praise+1","amp;tr":["udp%3A%2F%2Ftracker.openbittorrent.com%3A80","udp%3A%2F%2Fopen.demonii.com%3A1337","udp%3A%2F%2Ftracker.coppersurfer.tk%3A6969","udp%3A%2F%2Fexodus.desync.com%3A6969"],"infoHash":"10a7642d66fef8cd6a5c90dc35091e0a50e07b12","infoHashBuffer":{"type":"Buffer","data":[16,167,100,45,102,254,248,205,106,92,144,220,53,9,30,10,80,224,123,18]},"announce":[],"urlList":[]}}